<svg width="50" height="50" viewBox="0 0 50 50" fill="none" xmlns="http://www.w3.org/2000/svg">
<path d="M47.44 35.8862L38.8971 27.3547C38.51 26.9676 38.3914 26.4004 38.56 25.879C41.0814 18.1132 38.68 9.07889 31.3428 3.70028C25.8171 -0.349748 18.4956 -1.03123 12.1028 1.44022C10.3799 2.10594 9.94847 4.35593 11.2542 5.66022L20.0671 14.4617C20.4328 14.826 20.5742 15.3575 20.4414 15.8546L19.6928 18.6447C19.5585 19.1432 19.1699 19.5318 18.6699 19.6661L15.877 20.4132C15.3785 20.5461 14.8456 20.4046 14.4813 20.0389L5.66702 11.2389C4.3613 9.93458 2.10844 10.366 1.44272 12.086C-1.033 18.4704 -0.350142 25.7818 3.70558 31.3004C9.09131 38.6276 18.1385 41.0248 25.9157 38.5077C26.4371 38.3377 27.0057 38.4562 27.3928 38.8434L36.1828 47.6205C39.5457 50.9791 45.1214 50.782 48.2257 47.0306C50.93 43.7591 50.4443 38.8862 47.44 35.8862ZM44.2428 40.8562C44.8071 41.4205 44.8071 42.3334 44.2428 42.8977L42.9571 44.182C42.3914 44.7463 41.4771 44.7463 40.9128 44.182L29.5214 32.7076C28.6128 31.7933 27.2299 31.6333 26.0785 32.2118C20.8242 34.8547 14.2328 33.989 9.83704 29.599C7.10132 26.8675 5.6656 23.1847 5.72132 19.4561L12.7528 26.4789C13.1185 26.8432 13.6499 26.9847 14.1499 26.8519L22.5842 24.5947C23.5828 24.3275 24.3614 23.5504 24.6285 22.5532L26.8885 14.1303C27.0228 13.6317 26.8799 13.1003 26.5142 12.736L19.4813 5.71315C23.2171 5.65886 26.9042 7.09166 29.6399 9.82311C34.0257 14.2031 34.9014 20.7675 32.2771 26.009C31.7128 27.1347 31.8928 28.4847 32.7814 29.3747L44.2428 40.8562Z" fill="white"/>
</svg>
